# xmcd
#
# Track frame offsets: 
#        150
#        3955
#        15577
#        26440
#        37470
#        47152
#        60237
#        69482
#        80502
#        96805
#        109172
#        121190
#        130535
#        145760
#        165182
#        175615
#        189472
#        207875
#        221765
#        235152
#        245435
#
# Disc length: 3415 seconds
#
# Revision: 0
# Processed by: cddbd v1.5.2PL0 Copyright (c) Steve Scherf et al.
# Submitted via: ExactAudioCopy v0.99pb3
#
DISCID=0f0d5515
DTITLE=Various Artist - Freight Trains Ride Again, Volume 2
DYEAR=2000
DGENRE=Bluegrass
TTITLE0=Stanley Bros. - Train 45
TTITLE1=Stanley Bros. - Ridin' That Midnight Train
TTITLE2=James King and The Basement Band - I Hear A Choo-Choo Coming
TTITLE3=Lost and Found - Night Train to Memphis
TTITLE4=River Boys - My Dixie Home Warrior
TTITLE5=David Davis and Scott Brannon - East Bound Freight Train
TTITLE6=Stanley Bros. - Wild and Reckless Hobo
TTITLE7=Larry Sparks - Waitin' For A Train
TTITLE8=James King and David Davis - Hobo's Meditation
TTITLE9=Scott Brannon - Hobo Bill's Last Ride
TTITLE10=Warrior River Boys - Mystery Of the #5
TTITLE11=Warrior River Boys - Southern Cannonball
TTITLE12=Gillis Bros. - New River Train
TTITLE13=Gillis Bros. - Orange Blossom
TTITLE14=Warrior River Boys - Wreck Of the Old 97
TTITLE15=Mac Wiseman - A Hero's Death
TTITLE16=David Davis and Scott Brannon - Lightning Express
TTITLE17=Bob and Danny Paisley - The Evening Train
TTITLE18=Bill Harrell - Baggage Coach Ahead
TTITLE19=Sullivan Family - Gospel Train
TTITLE20=Stanley Bros. - Life's Railway to Heaven
EXTD=
EXTT0=
EXTT1=
EXTT2=
EXTT3=
EXTT4=
EXTT5=
EXTT6=
EXTT7=
EXTT8=
EXTT9=
EXTT10=
EXTT11=
EXTT12=
EXTT13=
EXTT14=
EXTT15=
EXTT16=
EXTT17=
EXTT18=
EXTT19=
EXTT20=
PLAYORDER=
